<?xml version="1.0" encoding="UTF-8" standalone="no"?><svg xmlns="http://www.w3.org/2000/svg" xmlns:xlink="http://www.w3.org/1999/xlink" contentScriptType="application/ecmascript" contentStyleType="text/css" height="937.5px" preserveAspectRatio="none" style="width:1109px;height:937px;" version="1.1" viewBox="0 0 1109 937" width="1109.375px" zoomAndPan="magnify"><defs><filter height="300%" id="f1inrrz907c0xq" width="300%" x="-1" y="-1"><feGaussianBlur result="blurOut" stdDeviation="6.25"/><feColorMatrix in="blurOut" result="blurOut2" type="matrix" values="0 0 0 0 0 0 0 0 0 0 0 0 0 0 0 0 0 0 .4 0"/><feOffset dx="12.5" dy="12.5" in="blurOut2" result="blurOut3"/><feBlend in="SourceGraphic" in2="blurOut3" mode="normal"/></filter></defs><g><text fill="#000000" font-family="Arial" font-size="37.5" lengthAdjust="spacingAndGlyphs" textLength="265.625" x="418.75" y="97.6746">activity-diagram</text><ellipse cx="465.625" cy="168.1213" fill="#000000" filter="url(#f1inrrz907c0xq)" rx="31.25" ry="31.25" style="stroke: none; stroke-width: 3.125;"/><polygon fill="#F8F8F8" filter="url(#f1inrrz907c0xq)" points="271.875,261.8713,659.375,261.8713,696.875,314.682,659.375,367.4927,271.875,367.4927,234.375,314.682,271.875,261.8713" style="stroke: #383838; stroke-width: 4.6875;"/><text fill="#000000" font-family="Arial" font-size="37.5" lengthAdjust="spacingAndGlyphs" textLength="325" x="303.125" y="328.2959">Graphviz installed?</text><text fill="#000000" font-family="Arial" font-size="37.5" lengthAdjust="spacingAndGlyphs" textLength="59.375" x="143.75" y="275.4852">yes</text><text fill="#000000" font-family="Arial" font-size="37.5" lengthAdjust="spacingAndGlyphs" textLength="43.75" x="728.125" y="275.4852">no</text><rect fill="#F8F8F8" filter="url(#f1inrrz907c0xq)" height="211.2427" rx="39.0625" ry="39.0625" style="stroke: #383838; stroke-width: 4.6875;" width="315.625" x="31.25" y="398.7427"/><text fill="#000000" font-family="Arial" font-size="37.5" lengthAdjust="spacingAndGlyphs" textLength="190.625" x="93.75" y="496.4172">process all</text><text fill="#000000" font-family="Arial" font-size="37.5" lengthAdjust="spacingAndGlyphs" textLength="165.625" x="106.25" y="539.5386">diagrams</text><rect fill="#F8F8F8" filter="url(#f1inrrz907c0xq)" height="211.2427" rx="39.0625" ry="39.0625" style="stroke: #383838; stroke-width: 4.6875;" width="665.625" x="409.375" y="398.7427"/><text fill="#000000" font-family="Arial" font-size="37.5" lengthAdjust="spacingAndGlyphs" textLength="218.75" x="632.8125" y="496.4172">process only</text><text fill="#000000" font-family="Arial" font-size="37.5" lengthAdjust="spacingAndGlyphs" textLength="540.625" x="471.875" y="539.5386">sequence and activity diagrams</text><polygon fill="#F8F8F8" filter="url(#f1inrrz907c0xq)" points="465.625,628.7354,503.125,666.2354,465.625,703.7354,428.125,666.2354,465.625,628.7354" style="stroke: #383838; stroke-width: 4.6875;"/><ellipse cx="465.625" cy="800.6104" fill="#FFFFFF" filter="url(#f1inrrz907c0xq)" rx="34.375" ry="34.375" style="stroke: #000000; stroke-width: 3.125;"/><ellipse cx="465.625" cy="800.6104" fill="#000000" rx="18.75" ry="18.75" style="stroke: #7F7F7F; stroke-width: 3.125;"/><line style="stroke: #383838; stroke-width: 4.6875;" x1="234.375" x2="189.0625" y1="314.682" y2="314.682"/><line style="stroke: #383838; stroke-width: 4.6875;" x1="189.0625" x2="189.0625" y1="314.682" y2="398.7427"/><polygon fill="#383838" points="176.5625,367.4927,189.0625,398.7427,201.5625,367.4927,189.0625,379.9927" style="stroke: #383838; stroke-width: 3.125;"/><line style="stroke: #383838; stroke-width: 4.6875;" x1="696.875" x2="742.1875" y1="314.682" y2="314.682"/><line style="stroke: #383838; stroke-width: 4.6875;" x1="742.1875" x2="742.1875" y1="314.682" y2="398.7427"/><polygon fill="#383838" points="729.6875,367.4927,742.1875,398.7427,754.6875,367.4927,742.1875,379.9927" style="stroke: #383838; stroke-width: 3.125;"/><line style="stroke: #383838; stroke-width: 4.6875;" x1="189.0625" x2="189.0625" y1="609.9854" y2="666.2354"/><line style="stroke: #383838; stroke-width: 4.6875;" x1="189.0625" x2="428.125" y1="666.2354" y2="666.2354"/><polygon fill="#383838" points="396.875,653.7354,428.125,666.2354,396.875,678.7354,409.375,666.2354" style="stroke: #383838; stroke-width: 3.125;"/><line style="stroke: #383838; stroke-width: 4.6875;" x1="742.1875" x2="742.1875" y1="609.9854" y2="666.2354"/><line style="stroke: #383838; stroke-width: 4.6875;" x1="742.1875" x2="503.125" y1="666.2354" y2="666.2354"/><polygon fill="#383838" points="534.375,653.7354,503.125,666.2354,534.375,678.7354,521.875,666.2354" style="stroke: #383838; stroke-width: 3.125;"/><line style="stroke: #383838; stroke-width: 4.6875;" x1="465.625" x2="465.625" y1="199.3713" y2="261.8713"/><polygon fill="#383838" points="453.125,230.6213,465.625,261.8713,478.125,230.6213,465.625,243.1213" style="stroke: #383838; stroke-width: 3.125;"/><line style="stroke: #383838; stroke-width: 4.6875;" x1="465.625" x2="465.625" y1="703.7354" y2="766.2354"/><polygon fill="#383838" points="453.125,734.9854,465.625,766.2354,478.125,734.9854,465.625,747.4854" style="stroke: #383838; stroke-width: 3.125;"/><text fill="#000000" font-family="Arial" font-size="37.5" lengthAdjust="spacingAndGlyphs" textLength="409.375" x="346.875" y="898.2849">Updated on 2022-08-27</text><!--MD5=[f4ddba876949c36a59c6df188c6fcf68]
@startuml




skinparam Dpi 300
skinparam Shadowing true
skinparam Padding 7
skinparam monochrome true
skinparam BackgroundColor white
skinparam RoundCorner 5
skinparam ParticipantPadding 40
skinparam BoxPadding 10
skinparam Padding 10

skinparam Default {
    FontName Arial
    FontColor black
    FontSize 12
    TextAlignment center
}

skinparam Caption {
    FontSize 16
}

skinparam Class {
    AttributeIconSize 15
    }

title activity-diagram
footer Updated on 2022-08-27


start

if (Graphviz installed?) then (yes)
  :process all
  diagrams;
else (no)
  :process only
  sequence and activity diagrams;
endif

stop

@enduml

PlantUML version 1.2020.02(Sun Mar 01 11:22:07 CET 2020)
(GPL source distribution)
Java Runtime: OpenJDK Runtime Environment
JVM: OpenJDK 64-Bit Server VM
Java Version: 18.0.2-ea+9-Ubuntu-2
Operating System: Linux
Default Encoding: UTF-8
Language: en
Country: US
--></g></svg>