<?xml version="1.0" encoding="UTF-8" standalone="no"?><svg xmlns="http://www.w3.org/2000/svg" xmlns:xlink="http://www.w3.org/1999/xlink" contentStyleType="text/css" height="953.125px" preserveAspectRatio="none" style="width:537px;height:953px;background:#FFFFFF;" version="1.1" viewBox="0 0 537 953" width="537.5px" zoomAndPan="magnify"><defs><filter height="300%" id="fcjorvxx1avlp" width="300%" x="-1" y="-1"><feGaussianBlur result="blurOut" stdDeviation="6.25"/><feColorMatrix in="blurOut" result="blurOut2" type="matrix" values="0 0 0 0 0 0 0 0 0 0 0 0 0 0 0 0 0 0 .4 0"/><feOffset dx="12.5" dy="12.5" in="blurOut2" result="blurOut3"/><feBlend in="SourceGraphic" in2="blurOut3" mode="normal"/></filter></defs><g><rect fill="#FFFFFF" height="144.0582" rx="7.8125" ry="7.8125" style="stroke:#00000000;stroke-width:3.125;" width="393.75" x="59.375" y="15.625"/><text fill="#000000" font-family="Arial" font-size="43.75" font-weight="bold" lengthAdjust="spacing" textLength="300" x="106.25" y="103.537">class-diagram</text><!--MD5=[357a412ba97e632e53ce962f8934b645]
class ClassName--><g id="elem_ClassName"><rect codeLine="4" fill="#F1F1F1" filter="url(#fcjorvxx1avlp)" height="609.3567" id="ClassName" rx="7.8125" ry="7.8125" style="stroke:#181818;stroke-width:1.5625;" width="471.875" x="21.875" y="200.3082"/><ellipse cx="113.4375" cy="268.7439" fill="#C2C2C2" rx="31.25" ry="31.25" style="stroke:#181818;stroke-width:3.125;"/><path d="M119.1504,282.0251 Q117.8809,282.6599 116.4648,283.0017 Q115.0488,283.3435 113.5352,283.3435 Q107.9687,283.3435 105.0391,279.7302 Q102.1582,276.0681 102.1582,269.1833 Q102.1582,262.2498 105.0391,258.6365 Q107.9687,254.9744 113.5352,254.9744 Q115.0488,254.9744 116.4648,255.3162 Q117.9297,255.6091 119.1504,256.2927 L119.1504,262.2986 Q117.7832,261.0291 116.4648,260.4431 Q115.1465,259.8083 113.7793,259.8083 Q110.8008,259.8083 109.2871,262.2009 Q107.7734,264.5447 107.7734,269.1833 Q107.7734,273.7732 109.2871,276.1169 Q110.8008,278.4607 113.7793,278.4607 Q115.1465,278.4607 116.4648,277.8748 Q117.7832,277.2888 119.1504,276.0193 L119.1504,282.0251 Z " fill="#000000"/><text fill="#000000" font-family="Arial" font-size="37.5" lengthAdjust="spacing" textLength="209.375" x="195.9375" y="282.3578">ClassName</text><line style="stroke:#181818;stroke-width:1.5625;" x1="25" x2="490.625" y1="337.1796" y2="337.1796"/><rect fill="none" height="31.25" style="stroke:#595959;stroke-width:3.125;" width="31.25" x="46.875" y="362.1796"/><text fill="#000000" font-family="Arial" font-size="37.5" lengthAdjust="spacing" textLength="309.375" x="112.5" y="416.1041">variable1: number</text><polygon fill="none" points="62.5,461.5509,81.25,480.3009,62.5,499.0509,43.75,480.3009" style="stroke:#8C8C8C;stroke-width:3.125;"/><text fill="#000000" font-family="Arial" font-size="37.5" lengthAdjust="spacing" textLength="271.875" x="112.5" y="521.7255">variable2: string</text><line style="stroke:#181818;stroke-width:1.5625;" x1="25" x2="490.625" y1="573.4222" y2="573.4222"/><polygon fill="#6D6D6D" points="62.5,595.2972,43.75,626.5472,81.25,626.5472" style="stroke:#535353;stroke-width:3.125;"/><text fill="#000000" font-family="Arial" font-size="37.5" lengthAdjust="spacing" textLength="265.625" x="112.5" y="652.3468">method1(): void</text><ellipse cx="62.5" cy="719.6686" fill="#A6A6A6" rx="15.625" ry="15.625" style="stroke:#545454;stroke-width:3.125;"/><text fill="#000000" font-family="Arial" font-size="37.5" lengthAdjust="spacing" textLength="331.25" x="112.5" y="757.9681">method2(): number</text></g><rect fill="#FFFFFF" height="98.4344" rx="7.8125" ry="7.8125" style="stroke:#00000000;stroke-width:3.125;" width="412.5" x="50" y="831.5399"/><text fill="#000000" font-family="Arial" font-size="31.25" lengthAdjust="spacing" textLength="350" x="81.25" y="892.1021">Updated on 2022-08-27</text><!--MD5=[caec2b699a5c04267e9819500fc79302]
@startuml

!include https://raw.githubusercontent.com/attilasomogyi/plantuml-settings/main/src/plantuml-settings.puml

class ClassName {
 -variable1: number
 #variable2: string
 ~method1(): void
 +method2(): number
}

@enduml

@startuml




skinparam Dpi 300
skinparam Shadowing true
skinparam Padding 7
skinparam monochrome true
skinparam BackgroundColor #FFFFFF
skinparam RoundCorner 5
skinparam ParticipantPadding 40
skinparam BoxPadding 10
skinparam Padding 10

skinparam Default {
    FontName Arial
    FontColor black
    FontSize 12
    TextAlignment center
}

skinparam Caption {
    FontSize 16
}

skinparam Class {
    AttributeIconSize 15
    }

title class-diagram
footer Updated on 2022-08-27


class ClassName {
 -variable1: number
 #variable2: string
 ~method1(): void
 +method2(): number
}

@enduml

PlantUML version 1.2022.6(Tue Jun 21 19:34:49 CEST 2022)
(GPL source distribution)
Java Runtime: OpenJDK Runtime Environment
JVM: OpenJDK 64-Bit Server VM
Default Encoding: UTF-8
Language: en
Country: US
--></g></svg>