<?xml version="1.0" encoding="UTF-8" standalone="no"?><svg xmlns="http://www.w3.org/2000/svg" xmlns:xlink="http://www.w3.org/1999/xlink" contentScriptType="application/ecmascript" contentStyleType="text/css" height="865.625px" preserveAspectRatio="none" style="width:528px;height:865px;" version="1.1" viewBox="0 0 528 865" width="528.125px" zoomAndPan="magnify"><defs><filter height="300%" id="fcjorvxx1avlp" width="300%" x="-1" y="-1"><feGaussianBlur result="blurOut" stdDeviation="6.25"/><feColorMatrix in="blurOut" result="blurOut2" type="matrix" values="0 0 0 0 0 0 0 0 0 0 0 0 0 0 0 0 0 0 .4 0"/><feOffset dx="12.5" dy="12.5" in="blurOut2" result="blurOut3"/><feBlend in="SourceGraphic" in2="blurOut3" mode="normal"/></filter></defs><g><text fill="#000000" font-family="Arial" font-size="37.5" lengthAdjust="spacingAndGlyphs" textLength="250" x="132.8125" y="66.4246">class-diagram</text><!--MD5=[357a412ba97e632e53ce962f8934b645]
class ClassName--><rect fill="#F8F8F8" filter="url(#fcjorvxx1avlp)" height="609.3567" id="ClassName" rx="7.8125" ry="7.8125" style="stroke: #383838; stroke-width: 4.6875;" width="471.875" x="21.875" y="127.4963"/><ellipse cx="113.4375" cy="195.932" fill="#C2C2C2" rx="31.25" ry="31.25" style="stroke: #383838; stroke-width: 3.125;"/><path d="M119.1504,209.2133 Q117.8809,209.848 116.4648,210.1898 Q115.0488,210.5316 113.5352,210.5316 Q107.9687,210.5316 105.0391,206.9183 Q102.1582,203.2562 102.1582,196.3715 Q102.1582,189.4379 105.0391,185.8246 Q107.9687,182.1625 113.5352,182.1625 Q115.0488,182.1625 116.4648,182.5043 Q117.9297,182.7972 119.1504,183.4808 L119.1504,189.4867 Q117.7832,188.2172 116.4648,187.6312 Q115.1465,186.9965 113.7793,186.9965 Q110.8008,186.9965 109.2871,189.389 Q107.7734,191.7328 107.7734,196.3715 Q107.7734,200.9613 109.2871,203.3051 Q110.8008,205.6488 113.7793,205.6488 Q115.1465,205.6488 116.4648,205.0629 Q117.7832,204.4769 119.1504,203.2074 L119.1504,209.2133 Z "/><text fill="#000000" font-family="Arial" font-size="37.5" lengthAdjust="spacingAndGlyphs" textLength="209.375" x="195.9375" y="209.5459">ClassName</text><line style="stroke: #383838; stroke-width: 4.6875;" x1="25" x2="490.625" y1="264.3677" y2="264.3677"/><rect fill="none" height="31.25" style="stroke: #595959; stroke-width: 3.125;" width="31.25" x="46.875" y="289.3677"/><text fill="#000000" font-family="Arial" font-size="37.5" lengthAdjust="spacingAndGlyphs" textLength="309.375" x="112.5" y="343.2922">variable1: number</text><polygon fill="none" points="62.5,388.739,81.25,407.489,62.5,426.239,43.75,407.489" style="stroke: #8C8C8C; stroke-width: 3.125;"/><text fill="#000000" font-family="Arial" font-size="37.5" lengthAdjust="spacingAndGlyphs" textLength="271.875" x="112.5" y="448.9136">variable2: string</text><line style="stroke: #383838; stroke-width: 4.6875;" x1="25" x2="490.625" y1="500.6104" y2="500.6104"/><polygon fill="#6C6C6C" points="62.5,522.4854,43.75,553.7354,81.25,553.7354" style="stroke: #535353; stroke-width: 3.125;"/><text fill="#000000" font-family="Arial" font-size="37.5" lengthAdjust="spacingAndGlyphs" textLength="265.625" x="112.5" y="579.5349">method1(): void</text><ellipse cx="62.5" cy="646.8567" fill="#A6A6A6" rx="15.625" ry="15.625" style="stroke: #545454; stroke-width: 3.125;"/><text fill="#000000" font-family="Arial" font-size="37.5" lengthAdjust="spacingAndGlyphs" textLength="331.25" x="112.5" y="685.1563">method2(): number</text><text fill="#000000" font-family="Arial" font-size="37.5" lengthAdjust="spacingAndGlyphs" textLength="409.375" x="53.125" y="825.1526">Updated on 2022-08-27</text><!--MD5=[423493a775c770fcd2ad213a2a919a50]
@startuml




skinparam Dpi 300
skinparam Shadowing true
skinparam Padding 7
skinparam monochrome true
skinparam BackgroundColor #FFFFFF
skinparam RoundCorner 5
skinparam ParticipantPadding 40
skinparam BoxPadding 10
skinparam Padding 10

skinparam Default {
    FontName Arial
    FontColor black
    FontSize 12
    TextAlignment center
}

skinparam Caption {
    FontSize 16
}

skinparam Class {
    AttributeIconSize 15
    }

title class-diagram
footer Updated on 2022-08-27


class ClassName {
 -variable1: number
 #variable2: string
 ~method1(): void
 +method2(): number
}

@enduml

PlantUML version 1.2020.02(Sun Mar 01 11:22:07 CET 2020)
(GPL source distribution)
Java Runtime: OpenJDK Runtime Environment
JVM: OpenJDK 64-Bit Server VM
Java Version: 18.0.2-ea+9-Ubuntu-2
Operating System: Linux
Default Encoding: UTF-8
Language: en
Country: US
--></g></svg>