<?xml version="1.0" encoding="UTF-8" standalone="no"?><svg xmlns="http://www.w3.org/2000/svg" xmlns:xlink="http://www.w3.org/1999/xlink" contentScriptType="application/ecmascript" contentStyleType="text/css" height="1843.75px" preserveAspectRatio="none" style="width:900px;height:1843px;" version="1.1" viewBox="0 0 900 1843" width="900px" zoomAndPan="magnify"><defs><filter height="300%" id="fdv33yxizzcor" width="300%" x="-1" y="-1"><feGaussianBlur result="blurOut" stdDeviation="6.25"/><feColorMatrix in="blurOut" result="blurOut2" type="matrix" values="0 0 0 0 0 0 0 0 0 0 0 0 0 0 0 0 0 0 .4 0"/><feOffset dx="12.5" dy="12.5" in="blurOut2" result="blurOut3"/><feBlend in="SourceGraphic" in2="blurOut3" mode="normal"/></filter></defs><g><text fill="#000000" font-family="Arial" font-size="37.5" lengthAdjust="spacingAndGlyphs" textLength="318.75" x="325" y="66.4246">use-case-diagram</text><!--MD5=[fb1b454ac1984f657a61539df0e47555]
cluster Professional--><path d="M76.5625,711.8713 L367.1875,711.8713 A11.7188,11.7188 0 0 1 375,719.6838 L396.875,836.2427 L407.8125,836.2427 A7.8125,7.8125 0 0 1 415.625,844.0552 L415.625,1647.8088 A7.8125,7.8125 0 0 1 407.8125,1655.6213 L76.5625,1655.6213 A7.8125,7.8125 0 0 1 68.75,1647.8088 L68.75,719.6838 A7.8125,7.8125 0 0 1 76.5625,711.8713 " fill="#FFFFFF" filter="url(#fdv33yxizzcor)" style="stroke: #000000; stroke-width: 4.6875;"/><line style="stroke: #000000; stroke-width: 4.6875;" x1="68.75" x2="396.875" y1="836.2427" y2="836.2427"/><text fill="#000000" font-family="Arial" font-size="37.5" font-weight="bold" lengthAdjust="spacingAndGlyphs" textLength="225" x="112.5" y="784.5459">Professional</text><!--MD5=[bc938698130bec3721522f38f16e3aed]
cluster Restaurant--><path d="M510.9375,180.6213 L773.4375,180.6213 A11.7188,11.7188 0 0 1 781.25,188.4338 L803.125,304.9927 L854.6875,304.9927 A7.8125,7.8125 0 0 1 862.5,312.8052 L862.5,1125.9338 A7.8125,7.8125 0 0 1 854.6875,1133.7463 L510.9375,1133.7463 A7.8125,7.8125 0 0 1 503.125,1125.9338 L503.125,188.4338 A7.8125,7.8125 0 0 1 510.9375,180.6213 " fill="#FFFFFF" filter="url(#fdv33yxizzcor)" style="stroke: #000000; stroke-width: 4.6875;"/><line style="stroke: #000000; stroke-width: 4.6875;" x1="503.125" x2="803.125" y1="304.9927" y2="304.9927"/><text fill="#000000" font-family="Arial" font-size="37.5" font-weight="bold" lengthAdjust="spacingAndGlyphs" textLength="196.875" x="546.875" y="253.2959">Restaurant</text><!--MD5=[ff8250f90b990ced6bd2564acf1d7da5]
entity chef--><ellipse cx="242.1875" cy="905.6213" fill="#F8F8F8" filter="url(#fdv33yxizzcor)" rx="25" ry="25" style="stroke: #383838; stroke-width: 4.6875;"/><path d="M242.1875,930.6213 L242.1875,1014.9963 M201.5625,955.6213 L282.8125,955.6213 M242.1875,1014.9963 L201.5625,1061.8713 M242.1875,1014.9963 L282.8125,1061.8713 " fill="none" filter="url(#fdv33yxizzcor)" style="stroke: #383838; stroke-width: 4.6875;"/><text fill="#000000" font-family="Arial" font-size="37.5" lengthAdjust="spacingAndGlyphs" textLength="81.25" x="201.5625" y="1145.4834">Chef</text><!--MD5=[51de5772ec40ce5bcf939671f78d07a4]
entity foodCritic--><ellipse cx="242.1875" cy="1324.3713" fill="#F8F8F8" filter="url(#fdv33yxizzcor)" rx="25" ry="25" style="stroke: #383838; stroke-width: 4.6875;"/><path d="M242.1875,1349.3713 L242.1875,1433.7463 M201.5625,1374.3713 L282.8125,1374.3713 M242.1875,1433.7463 L201.5625,1480.6213 M242.1875,1433.7463 L282.8125,1480.6213 " fill="none" filter="url(#fdv33yxizzcor)" style="stroke: #383838; stroke-width: 4.6875;"/><text fill="#000000" font-family="Arial" font-size="37.5" lengthAdjust="spacingAndGlyphs" textLength="184.375" x="150" y="1564.2334">Food Critic</text><ellipse cx="682.0632" cy="395.7555" fill="#F8F8F8" filter="url(#fdv33yxizzcor)" rx="97.6882" ry="52.6342" style="stroke: #383838; stroke-width: 4.6875;"/><text fill="#000000" font-family="Arial" font-size="37.5" lengthAdjust="spacingAndGlyphs" textLength="153.125" x="605.5007" y="406.3787">Eat Food</text><ellipse cx="682.668" cy="614.2752" fill="#F8F8F8" filter="url(#fdv33yxizzcor)" rx="129.543" ry="55.5288" style="stroke: #383838; stroke-width: 4.6875;"/><text fill="#000000" font-family="Arial" font-size="37.5" lengthAdjust="spacingAndGlyphs" textLength="212.5" x="576.418" y="624.8983">Pay for Food</text><ellipse cx="683.1728" cy="827.9668" fill="#F8F8F8" filter="url(#fdv33yxizzcor)" rx="64.4228" ry="47.3455" style="stroke: #383838; stroke-width: 4.6875;"/><text fill="#000000" font-family="Arial" font-size="37.5" lengthAdjust="spacingAndGlyphs" textLength="90.625" x="637.8603" y="838.59">Drink</text><ellipse cx="682.6635" cy="1034.4058" fill="#F8F8F8" filter="url(#fdv33yxizzcor)" rx="82.6635" ry="50.6594" style="stroke: #383838; stroke-width: 4.6875;"/><text fill="#000000" font-family="Arial" font-size="37.5" lengthAdjust="spacingAndGlyphs" textLength="125" x="620.1635" y="1045.0289">Review</text><!--MD5=[c5e4162467c791d7f397cc71f8aa022e]
entity guest--><ellipse cx="242.1875" cy="380.6213" fill="#F8F8F8" filter="url(#fdv33yxizzcor)" rx="25" ry="25" style="stroke: #383838; stroke-width: 4.6875;"/><path d="M242.1875,405.6213 L242.1875,489.9963 M201.5625,430.6213 L282.8125,430.6213 M242.1875,489.9963 L201.5625,536.8713 M242.1875,489.9963 L282.8125,536.8713 " fill="none" filter="url(#fdv33yxizzcor)" style="stroke: #383838; stroke-width: 4.6875;"/><text fill="#000000" font-family="Arial" font-size="37.5" lengthAdjust="spacingAndGlyphs" textLength="103.125" x="190.625" y="620.4834">Guest</text><!--MD5=[708d7ed63351860a5466c9b897488e39]
link foodCritic to review--><path d="M366.3125,1333.5901 C450.9063,1252.6526 559.9063,1148.3401 624.5313,1086.4963 " fill="none" id="foodCritic-&gt;review" style="stroke: #383838; stroke-width: 3.125;"/><polygon fill="#383838" points="636.0938,1075.4651,607.1292,1085.8727,624.8025,1086.2654,624.4097,1103.9387,636.0938,1075.4651" style="stroke: #383838; stroke-width: 3.125;"/><!--MD5=[98b67e27e1508626b9b60c7324225277]
link guest to eatFood--><path d="M326,485.3088 C396.5313,467.5276 499.4063,441.6526 576.0313,422.3401 " fill="none" id="guest-&gt;eatFood" style="stroke: #383838; stroke-width: 3.125;"/><polygon fill="#383838" points="591.9688,418.3401,561.6518,413.0346,576.8103,422.1297,567.7152,437.2882,591.9688,418.3401" style="stroke: #383838; stroke-width: 3.125;"/><!--MD5=[c2e8448cdb5114bf465d596561cf42d2]
link guest to playForFood--><path d="M326,525.9338 C389.9063,542.0276 480.3125,564.8088 553.75,583.2776 " fill="none" id="guest-&gt;playForFood" style="stroke: #383838; stroke-width: 3.125;"/><polygon fill="#383838" points="569.125,587.1526,544.8714,568.2045,553.9665,583.363,538.808,592.4581,569.125,587.1526" style="stroke: #383838; stroke-width: 3.125;"/><!--MD5=[b0aba13328fdc0a69eb148cbd286e6de]
link guest to drink--><path d="M325.0938,593.3088 C367.75,637.0588 422.7813,688.7463 478.125,727.4963 C519.4375,756.4338 570.375,781.6213 610.6875,799.4963 " fill="none" id="guest-&gt;drink" style="stroke: #383838; stroke-width: 3.125;"/><polygon fill="#383838" points="625.0313,805.7151,604.1891,783.0684,610.6928,799.5062,594.255,806.0099,625.0313,805.7151" style="stroke: #383838; stroke-width: 3.125;"/><text fill="#000000" font-family="Arial" font-size="37.5" lengthAdjust="spacingAndGlyphs" textLength="409.375" x="279.6875" y="1803.2959">Updated on 2022-08-27</text><!--MD5=[2d7b8275d5d74f65d12b7b206d5c5785]
@startuml




skinparam Dpi 300
skinparam Shadowing true
skinparam Padding 7
skinparam monochrome true
skinparam BackgroundColor #FFFFFF
skinparam RoundCorner 5
skinparam ParticipantPadding 40
skinparam BoxPadding 10
skinparam Padding 10

skinparam Default {
    FontName Arial
    FontColor black
    FontSize 12
    TextAlignment center
}

skinparam Caption {
    FontSize 16
}

skinparam Class {
    AttributeIconSize 15
    }

title use-case-diagram
footer Updated on 2022-08-27


left to right direction

actor Guest as guest

package Professional {
  actor Chef as chef
  actor "Food Critic" as foodCritic
}

package Restaurant {
  usecase "Eat Food" as eatFood
  usecase "Pay for Food" as playForFood
  usecase "Drink" as drink
  usecase "Review" as review
}

foodCritic - -> review
guest - -> eatFood
guest - -> playForFood
guest - -> drink

@enduml

PlantUML version 1.2020.02(Sun Mar 01 11:22:07 CET 2020)
(GPL source distribution)
Java Runtime: OpenJDK Runtime Environment
JVM: OpenJDK 64-Bit Server VM
Java Version: 18.0.2-ea+9-Ubuntu-2
Operating System: Linux
Default Encoding: UTF-8
Language: en
Country: US
--></g></svg>