<?xml version="1.0" encoding="utf-8" standalone="no"?>
<svg xmlns="http://www.w3.org/2000/svg"
     xmlns:xlink="http://www.w3.org/1999/xlink"
     contentStyleType="text/css"
     height="953.125px"
     preserveAspectRatio="none"
     style="width:518px;height:953px;background:#FFFFFF;"
     version="1.1"
     viewBox="0 0 518 953"
     width="518.75px"
     zoomAndPan="magnify">
  <defs>
    <filter height="300%"
            id="fsa9ok380ccto"
            width="300%"
            x="-1"
            y="-1">
      <feGaussianBlur result="blurOut"
                      stdDeviation="6.25" />
      <feColorMatrix in="blurOut"
                     result="blurOut2"
                     type="matrix"
                     values="0 0 0 0 0 0 0 0 0 0 0 0 0 0 0 0 0 0 .4 0" />
      <feOffset dx="12.5"
                dy="12.5"
                in="blurOut2"
                result="blurOut3" />
      <feBlend in="SourceGraphic"
               in2="blurOut3"
               mode="normal" />
    </filter>
  </defs>
  <g>
    <rect fill="#FFFFFF"
          height="144.0582"
          rx="7.8125"
          ry="7.8125"
          style="stroke:#00000000;stroke-width:3.125;"
          width="393.75"
          x="50"
          y="15.625" />
    <text fill="#000000"
          font-family="Arial"
          font-size="43.75"
          font-weight="bold"
          lengthAdjust="spacing"
          textLength="300"
          x="96.875"
          y="103.537">class-diagram</text>
    <g id="elem_ClassName">
      <rect codeLine="4"
            fill="#F1F1F1"
            filter="url(#fsa9ok380ccto)"
            height="609.3567"
            id="ClassName"
            rx="7.8125"
            ry="7.8125"
            style="stroke:#181818;stroke-width:1.5625;"
            width="453.125"
            x="21.875"
            y="200.3082" />
      <ellipse cx="105"
               cy="268.7439"
               fill="#C2C2C2"
               rx="31.25"
               ry="31.25"
               style="stroke:#181818;stroke-width:3.125;" />
      <path d="M110.7129,282.0251 Q109.4434,282.6599 108.0273,283.0017 Q106.6113,283.3435 105.0977,283.3435 Q99.5313,283.3435 96.6016,279.7302 Q93.7207,276.0681 93.7207,269.1833 Q93.7207,262.2498 96.6016,258.6365 Q99.5313,254.9744 105.0977,254.9744 Q106.6113,254.9744 108.0273,255.3162 Q109.4922,255.6091 110.7129,256.2927 L110.7129,262.2986 Q109.3457,261.0291 108.0273,260.4431 Q106.709,259.8083 105.3418,259.8083 Q102.3633,259.8083 100.8496,262.2009 Q99.3359,264.5447 99.3359,269.1833 Q99.3359,273.7732 100.8496,276.1169 Q102.3633,278.4607 105.3418,278.4607 Q106.709,278.4607 108.0273,277.8748 Q109.3457,277.2888 110.7129,276.0193 L110.7129,282.0251 Z"
            fill="#000000" />
      <text fill="#000000"
            font-family="Arial"
            font-size="37.5"
            lengthAdjust="spacing"
            textLength="209.375"
            x="185.625"
            y="282.3578">ClassName</text>
      <line style="stroke:#181818;stroke-width:1.5625;"
            x1="25"
            x2="471.875"
            y1="337.1796"
            y2="337.1796" />
      <text fill="#000000"
            font-family="Arial"
            font-size="37.5"
            lengthAdjust="spacing"
            textLength="321.875"
            x="71.875"
            y="416.1041">-variable1: number</text>
      <text fill="#000000"
            font-family="Arial"
            font-size="37.5"
            lengthAdjust="spacing"
            textLength="293.75"
            x="71.875"
            y="521.7255">#variable2: string</text>
      <line style="stroke:#181818;stroke-width:1.5625;"
            x1="25"
            x2="471.875"
            y1="573.4222"
            y2="573.4222" />
      <text fill="#000000"
            font-family="Arial"
            font-size="37.5"
            lengthAdjust="spacing"
            textLength="287.5"
            x="71.875"
            y="652.3468">~method1(): void</text>
      <text fill="#000000"
            font-family="Arial"
            font-size="37.5"
            lengthAdjust="spacing"
            textLength="353.125"
            x="71.875"
            y="757.9681">+method2(): number</text>
    </g>
    <rect fill="#FFFFFF"
          height="98.4344"
          rx="7.8125"
          ry="7.8125"
          style="stroke:#00000000;stroke-width:3.125;"
          width="412.5"
          x="40.625"
          y="831.5399" />
    <text fill="#000000"
          font-family="Arial"
          font-size="31.25"
          lengthAdjust="spacing"
          textLength="350"
          x="71.875"
          y="892.1021">Updated on 2022-08-29</text>
  </g>
</svg>
