<?xml version="1.0" encoding="utf-8" standalone="no"?>
<svg xmlns="http://www.w3.org/2000/svg"
     xmlns:xlink="http://www.w3.org/1999/xlink"
     contentStyleType="text/css"
     height="1846.875px"
     preserveAspectRatio="none"
     style="width:1040px;height:1846px;background:#FFFFFF;"
     version="1.1"
     viewBox="0 0 1040 1846"
     width="1040.625px"
     zoomAndPan="magnify">
  <defs>
    <filter height="300%"
            id="f16vzrb9b3cotq"
            width="300%"
            x="-1"
            y="-1">
      <feGaussianBlur result="blurOut"
                      stdDeviation="6.25" />
      <feColorMatrix in="blurOut"
                     result="blurOut2"
                     type="matrix"
                     values="0 0 0 0 0 0 0 0 0 0 0 0 0 0 0 0 0 0 .4 0" />
      <feOffset dx="12.5"
                dy="12.5"
                in="blurOut2"
                result="blurOut3" />
      <feBlend in="SourceGraphic"
               in2="blurOut3"
               mode="normal" />
    </filter>
  </defs>
  <g>
    <rect fill="#FFFFFF"
          height="144.0582"
          rx="7.8125"
          ry="7.8125"
          style="stroke:#00000000;stroke-width:3.125;"
          width="478.125"
          x="256.25"
          y="15.625" />
    <text fill="#000000"
          font-family="Arial"
          font-size="43.75"
          font-weight="bold"
          lengthAdjust="spacing"
          textLength="384.375"
          x="303.125"
          y="103.537">use-case-diagram</text>
    <g id="cluster_Professional">
      <path d="M26.5625,781.5582 L317.1875,781.5582 A11.7188,11.7188 0 0 1 325,789.3707 L346.875,905.9296 L357.8125,905.9296 A7.8125,7.8125 0 0 1 365.625,913.7421 L365.625,1698.7457 A7.8125,7.8125 0 0 1 357.8125,1706.5582 L26.5625,1706.5582 A7.8125,7.8125 0 0 1 18.75,1698.7457 L18.75,789.3707 A7.8125,7.8125 0 0 1 26.5625,781.5582"
            filter="url(#f16vzrb9b3cotq)"
            style="stroke:#000000;stroke-width:4.6875;fill:none;" />
      <line style="stroke:#000000;stroke-width:4.6875;fill:none;"
            x1="18.75"
            x2="346.875"
            y1="905.9296"
            y2="905.9296" />
      <text fill="#000000"
            font-family="Arial"
            font-size="37.5"
            font-weight="bold"
            lengthAdjust="spacing"
            textLength="225"
            x="62.5"
            y="854.2328">Professional</text>
    </g>
    <g id="cluster_Restaurant">
      <path d="M460.9375,197.1832 L723.4375,197.1832 A11.7188,11.7188 0 0 1 731.25,204.9957 L753.125,321.5546 L1004.6875,321.5546 A7.8125,7.8125 0 0 1 1012.5,329.3671 L1012.5,1404.9957 A7.8125,7.8125 0 0 1 1004.6875,1412.8082 L460.9375,1412.8082 A7.8125,7.8125 0 0 1 453.125,1404.9957 L453.125,204.9957 A7.8125,7.8125 0 0 1 460.9375,197.1832"
            filter="url(#f16vzrb9b3cotq)"
            style="stroke:#000000;stroke-width:4.6875;fill:none;" />
      <line style="stroke:#000000;stroke-width:4.6875;fill:none;"
            x1="453.125"
            x2="753.125"
            y1="321.5546"
            y2="321.5546" />
      <text fill="#000000"
            font-family="Arial"
            font-size="37.5"
            font-weight="bold"
            lengthAdjust="spacing"
            textLength="196.875"
            x="496.875"
            y="269.8578">Restaurant</text>
    </g>
    <g id="elem_chef">
      <ellipse cx="192.1875"
               cy="969.0582"
               fill="#F1F1F1"
               filter="url(#f16vzrb9b3cotq)"
               rx="25"
               ry="25"
               style="stroke:#181818;stroke-width:1.5625;" />
      <path d="M192.1875,994.0582 L192.1875,1078.4332 M151.5625,1019.0582 L232.8125,1019.0582 M192.1875,1078.4332 L151.5625,1125.3082 M192.1875,1078.4332 L232.8125,1125.3082"
            fill="none"
            filter="url(#f16vzrb9b3cotq)"
            style="stroke:#181818;stroke-width:1.5625;" />
      <text fill="#000000"
            font-family="Arial"
            font-size="37.5"
            lengthAdjust="spacing"
            textLength="81.25"
            x="151.5625"
            y="1205.7953">Chef</text>
    </g>
    <g id="elem_foodCritic">
      <ellipse cx="192.1875"
               cy="1381.5582"
               fill="#F1F1F1"
               filter="url(#f16vzrb9b3cotq)"
               rx="25"
               ry="25"
               style="stroke:#181818;stroke-width:1.5625;" />
      <path d="M192.1875,1406.5582 L192.1875,1490.9332 M151.5625,1431.5582 L232.8125,1431.5582 M192.1875,1490.9332 L151.5625,1537.8082 M192.1875,1490.9332 L232.8125,1537.8082"
            fill="none"
            filter="url(#f16vzrb9b3cotq)"
            style="stroke:#181818;stroke-width:1.5625;" />
      <text fill="#000000"
            font-family="Arial"
            font-size="37.5"
            lengthAdjust="spacing"
            textLength="184.375"
            x="100"
            y="1618.2953">Food Critic</text>
    </g>
    <g id="elem_eatFood">
      <ellipse cx="732.1114"
               cy="443.7438"
               fill="#F1F1F1"
               filter="url(#f16vzrb9b3cotq)"
               rx="188.3614"
               ry="84.0606"
               style="stroke:#181818;stroke-width:1.5625;" />
      <text fill="#000000"
            font-family="Arial"
            font-size="37.5"
            lengthAdjust="spacing"
            textLength="153.125"
            x="655.5489"
            y="451.1077">Eat Food</text>
    </g>
    <g id="elem_playForFood">
      <ellipse cx="733.4709"
               cy="721.8688"
               fill="#F1F1F1"
               filter="url(#f16vzrb9b3cotq)"
               rx="230.3459"
               ry="84.0606"
               style="stroke:#181818;stroke-width:1.5625;" />
      <text fill="#000000"
            font-family="Arial"
            font-size="37.5"
            lengthAdjust="spacing"
            textLength="212.5"
            x="627.2209"
            y="729.2327">Pay for Food</text>
    </g>
    <g id="elem_drink">
      <ellipse cx="733.2297"
               cy="999.9938"
               fill="#F1F1F1"
               filter="url(#f16vzrb9b3cotq)"
               rx="144.1672"
               ry="84.0606"
               style="stroke:#181818;stroke-width:1.5625;" />
      <text fill="#000000"
            font-family="Arial"
            font-size="37.5"
            lengthAdjust="spacing"
            textLength="90.625"
            x="687.9172"
            y="1007.3577">Drink</text>
    </g>
    <g id="elem_review">
      <ellipse cx="732.5365"
               cy="1278.1188"
               fill="#F1F1F1"
               filter="url(#f16vzrb9b3cotq)"
               rx="168.474"
               ry="84.0606"
               style="stroke:#181818;stroke-width:1.5625;" />
      <text fill="#000000"
            font-family="Arial"
            font-size="37.5"
            lengthAdjust="spacing"
            textLength="125"
            x="670.0365"
            y="1285.4827">Review</text>
    </g>
    <g id="elem_guest">
      <ellipse cx="192.1875"
               cy="456.5582"
               fill="#F1F1F1"
               filter="url(#f16vzrb9b3cotq)"
               rx="25"
               ry="25"
               style="stroke:#181818;stroke-width:1.5625;" />
      <path d="M192.1875,481.5582 L192.1875,565.9332 M151.5625,506.5582 L232.8125,506.5582 M192.1875,565.9332 L151.5625,612.8082 M192.1875,565.9332 L232.8125,612.8082"
            fill="none"
            filter="url(#f16vzrb9b3cotq)"
            style="stroke:#181818;stroke-width:1.5625;" />
      <text fill="#000000"
            font-family="Arial"
            font-size="37.5"
            lengthAdjust="spacing"
            textLength="103.125"
            x="140.625"
            y="693.2953">Guest</text>
    </g>
    <g id="link_foodCritic_review">
      <path d="M316.5625,1454.8082 C397.2188,1420.3707 503.4063,1375.027 587.9375,1338.9332"
            fill="none"
            id="foodCritic-to-review"
            style="stroke:#181818;stroke-width:3.125;" />
      <polygon fill="#181818"
               points="602.4063,1332.777,571.6313,1332.3666,588.0446,1338.932,581.4793,1355.3453,602.4063,1332.777"
               style="stroke:#181818;stroke-width:3.125;" />
    </g>
    <g id="link_guest_eatFood">
      <path d="M275.3125,560.9645 C347.9688,542.277 457.75,514.027 551.2188,489.9957"
            fill="none"
            id="guest-to-eatFood"
            style="stroke:#181818;stroke-width:3.125;" />
      <polygon fill="#181818"
               points="567.25,485.8707,536.9005,480.7544,552.1155,489.7548,543.1151,504.9697,567.25,485.8707"
               style="stroke:#181818;stroke-width:3.125;" />
    </g>
    <g id="link_guest_playForFood">
      <path d="M275.3125,602.6207 C342.4688,620.277 441.3437,646.3082 529.7188,669.5582"
            fill="none"
            id="guest-to-playForFood"
            style="stroke:#181818;stroke-width:3.125;" />
      <polygon fill="#181818"
               points="544.9375,673.5582,520.9225,654.3087,529.8275,669.5796,514.5566,678.4846,544.9375,673.5582"
               style="stroke:#181818;stroke-width:3.125;" />
    </g>
    <g id="link_guest_drink">
      <path d="M275.6563,701.777 C316.4688,756.152 369.75,818.0895 428.125,862.8082 C476.9688,900.2145 537.6563,930.3707 591.7188,952.8082"
            fill="none"
            id="guest-to-drink"
            style="stroke:#181818;stroke-width:3.125;" />
      <polygon fill="#181818"
               points="606.7813,958.9332,585.4273,936.7686,592.3047,953.0535,576.0197,959.931,606.7813,958.9332"
               style="stroke:#181818;stroke-width:3.125;" />
    </g>
    <rect fill="#FFFFFF"
          height="98.4344"
          rx="7.8125"
          ry="7.8125"
          style="stroke:#00000000;stroke-width:3.125;"
          width="412.5"
          x="289.0625"
          y="1725.3082" />
    <text fill="#000000"
          font-family="Arial"
          font-size="31.25"
          lengthAdjust="spacing"
          textLength="350"
          x="320.3125"
          y="1785.8704">Updated on 2022-08-29</text>
  </g>
</svg>
