<?xml version="1.0" encoding="utf-8" standalone="no"?>
<svg xmlns="http://www.w3.org/2000/svg"
     xmlns:xlink="http://www.w3.org/1999/xlink"
     contentStyleType="text/css"
     height="1292.8125px"
     preserveAspectRatio="none"
     style="width:728px;height:1292px;background:#FFFFFF;"
     version="1.1"
     viewBox="0 0 728 1292"
     width="728.4375px"
     zoomAndPan="magnify">
  <defs>
    <filter height="300%"
            id="fruhilg8p8sso"
            width="300%"
            x="-1"
            y="-1">
      <feGaussianBlur result="blurOut"
                      stdDeviation="4.375" />
      <feColorMatrix in="blurOut"
                     result="blurOut2"
                     type="matrix"
                     values="0 0 0 0 0 0 0 0 0 0 0 0 0 0 0 0 0 0 .4 0" />
      <feOffset dx="8.75"
                dy="8.75"
                in="blurOut2"
                result="blurOut3" />
      <feBlend in="SourceGraphic"
               in2="blurOut3"
               mode="normal" />
    </filter>
  </defs>
  <g>
    <rect fill="#FFFFFF"
          height="100.8408"
          rx="5.4688"
          ry="5.4688"
          style="stroke:#00000000;stroke-width:2.1875;"
          width="334.6875"
          x="179.375"
          y="10.9375" />
    <text fill="#000000"
          font-family="Arial"
          font-size="30.625"
          font-weight="bold"
          lengthAdjust="spacing"
          textLength="269.0625"
          x="212.1875"
          y="72.4759">use-case-diagram</text>
    <g id="cluster_Professional">
      <path d="M18.5938,547.0908 L222.0313,547.0908 A8.2031,8.2031 0 0 1 227.5,552.5595 L242.8125,634.1507 L250.4688,634.1507 A5.4688,5.4688 0 0 1 255.9375,639.6194 L255.9375,1189.122 A5.4688,5.4688 0 0 1 250.4688,1194.5908 L18.5938,1194.5908 A5.4688,5.4688 0 0 1 13.125,1189.122 L13.125,552.5595 A5.4688,5.4688 0 0 1 18.5938,547.0908"
            filter="url(#fruhilg8p8sso)"
            style="stroke:#000000;stroke-width:3.28125;fill:none;" />
      <line style="stroke:#000000;stroke-width:3.28125;fill:none;"
            x1="13.125"
            x2="242.8125"
            y1="634.1507"
            y2="634.1507" />
      <text fill="#000000"
            font-family="Arial"
            font-size="26.25"
            font-weight="bold"
            lengthAdjust="spacing"
            textLength="157.5"
            x="43.75"
            y="597.963">Professional</text>
    </g>
    <g id="cluster_Restaurant">
      <path d="M322.6563,138.0283 L506.4063,138.0283 A8.2031,8.2031 0 0 1 511.875,143.497 L527.1875,225.0882 L703.2813,225.0882 A5.4688,5.4688 0 0 1 708.75,230.5569 L708.75,983.497 A5.4688,5.4688 0 0 1 703.2813,988.9658 L322.6563,988.9658 A5.4688,5.4688 0 0 1 317.1875,983.497 L317.1875,143.497 A5.4688,5.4688 0 0 1 322.6563,138.0283"
            filter="url(#fruhilg8p8sso)"
            style="stroke:#000000;stroke-width:3.28125;fill:none;" />
      <line style="stroke:#000000;stroke-width:3.28125;fill:none;"
            x1="317.1875"
            x2="527.1875"
            y1="225.0882"
            y2="225.0882" />
      <text fill="#000000"
            font-family="Arial"
            font-size="26.25"
            font-weight="bold"
            lengthAdjust="spacing"
            textLength="137.8125"
            x="347.8125"
            y="188.9005">Restaurant</text>
    </g>
    <g id="elem_chef">
      <ellipse cx="134.5313"
               cy="678.3408"
               fill="#F1F1F1"
               filter="url(#fruhilg8p8sso)"
               rx="17.5"
               ry="17.5"
               style="stroke:#181818;stroke-width:1.09375;" />
      <path d="M134.5313,695.8408 L134.5313,754.9033 M106.0938,713.3408 L162.9688,713.3408 M134.5313,754.9033 L106.0938,787.7158 M134.5313,754.9033 L162.9688,787.7158"
            fill="none"
            filter="url(#fruhilg8p8sso)"
            style="stroke:#181818;stroke-width:1.09375;" />
      <text fill="#000000"
            font-family="Arial"
            font-size="26.25"
            lengthAdjust="spacing"
            textLength="56.875"
            x="106.0938"
            y="844.0567">Chef</text>
    </g>
    <g id="elem_foodCritic">
      <ellipse cx="134.5313"
               cy="967.0908"
               fill="#F1F1F1"
               filter="url(#fruhilg8p8sso)"
               rx="17.5"
               ry="17.5"
               style="stroke:#181818;stroke-width:1.09375;" />
      <path d="M134.5313,984.5908 L134.5313,1043.6533 M106.0938,1002.0908 L162.9688,1002.0908 M134.5313,1043.6533 L106.0938,1076.4658 M134.5313,1043.6533 L162.9688,1076.4658"
            fill="none"
            filter="url(#fruhilg8p8sso)"
            style="stroke:#181818;stroke-width:1.09375;" />
      <text fill="#000000"
            font-family="Arial"
            font-size="26.25"
            lengthAdjust="spacing"
            textLength="129.0625"
            x="70"
            y="1132.8067">Food Critic</text>
    </g>
    <g id="elem_eatFood">
      <ellipse cx="512.478"
               cy="310.6207"
               fill="#F1F1F1"
               filter="url(#fruhilg8p8sso)"
               rx="131.853"
               ry="58.8424"
               style="stroke:#181818;stroke-width:1.09375;" />
      <text fill="#000000"
            font-family="Arial"
            font-size="26.25"
            lengthAdjust="spacing"
            textLength="107.1875"
            x="458.8842"
            y="315.7754">Eat Food</text>
    </g>
    <g id="elem_playForFood">
      <ellipse cx="513.4296"
               cy="505.3082"
               fill="#F1F1F1"
               filter="url(#fruhilg8p8sso)"
               rx="161.2421"
               ry="58.8424"
               style="stroke:#181818;stroke-width:1.09375;" />
      <text fill="#000000"
            font-family="Arial"
            font-size="26.25"
            lengthAdjust="spacing"
            textLength="148.75"
            x="439.0546"
            y="510.4629">Pay for Food</text>
    </g>
    <g id="elem_drink">
      <ellipse cx="513.2608"
               cy="699.9957"
               fill="#F1F1F1"
               filter="url(#fruhilg8p8sso)"
               rx="100.9171"
               ry="58.8424"
               style="stroke:#181818;stroke-width:1.09375;" />
      <text fill="#000000"
            font-family="Arial"
            font-size="26.25"
            lengthAdjust="spacing"
            textLength="63.4375"
            x="481.5421"
            y="705.1504">Drink</text>
    </g>
    <g id="elem_review">
      <ellipse cx="512.7756"
               cy="894.6832"
               fill="#F1F1F1"
               filter="url(#fruhilg8p8sso)"
               rx="117.9318"
               ry="58.8424"
               style="stroke:#181818;stroke-width:1.09375;" />
      <text fill="#000000"
            font-family="Arial"
            font-size="26.25"
            lengthAdjust="spacing"
            textLength="87.5"
            x="469.0256"
            y="899.8379">Review</text>
    </g>
    <g id="elem_guest">
      <ellipse cx="134.5313"
               cy="319.5908"
               fill="#F1F1F1"
               filter="url(#fruhilg8p8sso)"
               rx="17.5"
               ry="17.5"
               style="stroke:#181818;stroke-width:1.09375;" />
      <path d="M134.5313,337.0908 L134.5313,396.1533 M106.0938,354.5908 L162.9688,354.5908 M134.5313,396.1533 L106.0938,428.9658 M134.5313,396.1533 L162.9688,428.9658"
            fill="none"
            filter="url(#fruhilg8p8sso)"
            style="stroke:#181818;stroke-width:1.09375;" />
      <text fill="#000000"
            font-family="Arial"
            font-size="26.25"
            lengthAdjust="spacing"
            textLength="72.1875"
            x="98.4375"
            y="485.3067">Guest</text>
    </g>
    <g id="link_foodCritic_review">
      <path d="M221.5938,1018.3658 C278.0531,994.2595 352.3844,962.5189 411.5563,937.2533"
            fill="none"
            id="foodCritic-to-review"
            style="stroke:#181818;stroke-width:2.1875;" />
      <polygon fill="#181818"
               points="421.6844,932.9439,400.1419,932.6567,411.6312,937.2524,407.0355,948.7417,421.6844,932.9439"
               style="stroke:#181818;stroke-width:2.1875;" />
    </g>
    <g id="link_guest_eatFood">
      <path d="M192.7188,392.6751 C243.5781,379.5939 320.425,359.8189 385.8531,342.997"
            fill="none"
            id="guest-to-eatFood"
            style="stroke:#181818;stroke-width:2.1875;" />
      <polygon fill="#181818"
               points="397.075,340.1095,375.8304,336.5281,386.4808,342.8284,380.1806,353.4788,397.075,340.1095"
               style="stroke:#181818;stroke-width:2.1875;" />
    </g>
    <g id="link_guest_playForFood">
      <path d="M192.7188,421.8345 C239.7281,434.1939 308.9406,452.4158 370.8031,468.6908"
            fill="none"
            id="guest-to-playForFood"
            style="stroke:#181818;stroke-width:2.1875;" />
      <polygon fill="#181818"
               points="381.4563,471.4908,364.6457,458.0161,370.8793,468.7057,360.1897,474.9392,381.4563,471.4908"
               style="stroke:#181818;stroke-width:2.1875;" />
    </g>
    <g id="link_guest_drink">
      <path d="M192.9594,491.2439 C221.5281,529.3064 258.825,572.6626 299.6875,603.9658 C333.8781,630.1501 376.3594,651.2595 414.2031,666.9658"
            fill="none"
            id="guest-to-drink"
            style="stroke:#181818;stroke-width:2.1875;" />
      <polygon fill="#181818"
               points="424.7469,671.2533,409.7991,655.738,414.6133,667.1375,403.2138,671.9517,424.7469,671.2533"
               style="stroke:#181818;stroke-width:2.1875;" />
    </g>
    <rect fill="#FFFFFF"
          height="68.9041"
          rx="5.4688"
          ry="5.4688"
          style="stroke:#00000000;stroke-width:2.1875;"
          width="288.75"
          x="202.3438"
          y="1207.7158" />
    <text fill="#000000"
          font-family="Arial"
          font-size="21.875"
          lengthAdjust="spacing"
          textLength="245"
          x="224.2188"
          y="1250.1093">Updated on 2022-09-05</text>
  </g>
</svg>
