<?xml version="1.0" encoding="utf-8" standalone="no"?>
<svg xmlns="http://www.w3.org/2000/svg"
     xmlns:xlink="http://www.w3.org/1999/xlink"
     contentStyleType="text/css"
     height="667.1875px"
     preserveAspectRatio="none"
     style="width:363px;height:667px;background:#FFFFFF;"
     version="1.1"
     viewBox="0 0 363 667"
     width="363.125px"
     zoomAndPan="magnify">
  <defs>
    <filter height="300%"
            id="fw6lmwo09aimg"
            width="300%"
            x="-1"
            y="-1">
      <feGaussianBlur result="blurOut"
                      stdDeviation="4.375" />
      <feColorMatrix in="blurOut"
                     result="blurOut2"
                     type="matrix"
                     values="0 0 0 0 0 0 0 0 0 0 0 0 0 0 0 0 0 0 .4 0" />
      <feOffset dx="8.75"
                dy="8.75"
                in="blurOut2"
                result="blurOut3" />
      <feBlend in="SourceGraphic"
               in2="blurOut3"
               mode="normal" />
    </filter>
  </defs>
  <g>
    <rect fill="#FFFFFF"
          height="100.8408"
          rx="5.4688"
          ry="5.4688"
          style="stroke:#00000000;stroke-width:2.1875;"
          width="275.625"
          x="35"
          y="10.9375" />
    <text fill="#000000"
          font-family="Arial"
          font-size="30.625"
          font-weight="bold"
          lengthAdjust="spacing"
          textLength="210"
          x="67.8125"
          y="72.4759">class-diagram</text>
    <g id="elem_ClassName">
      <rect codeLine="4"
            fill="#F1F1F1"
            filter="url(#fw6lmwo09aimg)"
            height="426.5497"
            id="ClassName"
            rx="5.4688"
            ry="5.4688"
            style="stroke:#181818;stroke-width:1.09375;"
            width="317.1875"
            x="15.3125"
            y="140.2158" />
      <ellipse cx="73.5"
               cy="188.1207"
               fill="#C2C2C2"
               rx="21.875"
               ry="21.875"
               style="stroke:#181818;stroke-width:2.1875;" />
      <path d="M77.499,197.4176 Q76.6104,197.8619 75.6191,198.1012 Q74.6279,198.3405 73.5684,198.3405 Q69.6719,198.3405 67.6211,195.8112 Q65.6045,193.2477 65.6045,188.4283 Q65.6045,183.5748 67.6211,181.0455 Q69.6719,178.4821 73.5684,178.4821 Q74.6279,178.4821 75.6191,178.7213 Q76.6445,178.9264 77.499,179.4049 L77.499,183.609 Q76.542,182.7203 75.6191,182.3102 Q74.6963,181.8658 73.7393,181.8658 Q71.6543,181.8658 70.5947,183.5406 Q69.5352,185.1813 69.5352,188.4283 Q69.5352,191.6412 70.5947,193.2819 Q71.6543,194.9225 73.7393,194.9225 Q74.6963,194.9225 75.6191,194.5123 Q76.542,194.1022 77.499,193.2135 L77.499,197.4176 Z"
            fill="#000000" />
      <text fill="#000000"
            font-family="Arial"
            font-size="26.25"
            lengthAdjust="spacing"
            textLength="146.5625"
            x="129.9375"
            y="197.6505">ClassName</text>
      <line style="stroke:#181818;stroke-width:1.09375;"
            x1="17.5"
            x2="330.3125"
            y1="236.0257"
            y2="236.0257" />
      <text fill="#000000"
            font-family="Arial"
            font-size="26.25"
            lengthAdjust="spacing"
            textLength="225.3125"
            x="50.3125"
            y="291.2729">-variable1: number</text>
      <text fill="#000000"
            font-family="Arial"
            font-size="26.25"
            lengthAdjust="spacing"
            textLength="205.625"
            x="50.3125"
            y="365.2078">#variable2: string</text>
      <line style="stroke:#181818;stroke-width:1.09375;"
            x1="17.5"
            x2="330.3125"
            y1="401.3956"
            y2="401.3956" />
      <text fill="#000000"
            font-family="Arial"
            font-size="26.25"
            lengthAdjust="spacing"
            textLength="201.25"
            x="50.3125"
            y="456.6428">~method1(): void</text>
      <text fill="#000000"
            font-family="Arial"
            font-size="26.25"
            lengthAdjust="spacing"
            textLength="247.1875"
            x="50.3125"
            y="530.5777">+method2(): number</text>
    </g>
    <rect fill="#FFFFFF"
          height="68.9041"
          rx="5.4688"
          ry="5.4688"
          style="stroke:#00000000;stroke-width:2.1875;"
          width="288.75"
          x="28.4375"
          y="582.0779" />
    <text fill="#000000"
          font-family="Arial"
          font-size="21.875"
          lengthAdjust="spacing"
          textLength="245"
          x="50.3125"
          y="624.4714">Updated on 2022-09-05</text>
  </g>
</svg>
